<svg width="20" height="20" viewBox="0 0 20 20" fill="none" xmlns="http://www.w3.org/2000/svg">
<path d="M13.7105 10.7101C14.6909 9.93878 15.4065 8.88105 15.7577 7.68407C16.109 6.48709 16.0784 5.21039 15.6703 4.03159C15.2621 2.85279 14.4967 1.83052 13.4806 1.10698C12.4644 0.383444 11.2479 -0.00537109 10.0005 -0.00537109C8.75303 -0.00537109 7.5366 0.383444 6.52041 1.10698C5.50423 1.83052 4.73883 2.85279 4.3307 4.03159C3.92257 5.21039 3.892 6.48709 4.24325 7.68407C4.59449 8.88105 5.31009 9.93878 6.29048 10.7101C4.61056 11.3832 3.14477 12.4995 2.04938 13.94C0.953983 15.3806 0.270048 17.0914 0.070485 18.8901C0.0560396 19.0214 0.0676015 19.1543 0.10451 19.2812C0.141419 19.408 0.202952 19.5264 0.285596 19.6294C0.452504 19.8376 0.695269 19.971 0.960485 20.0001C1.2257 20.0293 1.49164 19.9519 1.69981 19.785C1.90798 19.6181 2.04131 19.3753 2.07049 19.1101C2.29007 17.1553 3.22217 15.3499 4.6887 14.0389C6.15524 12.7279 8.05338 12.0032 10.0205 12.0032C11.9876 12.0032 13.8857 12.7279 15.3523 14.0389C16.8188 15.3499 17.7509 17.1553 17.9705 19.1101C17.9977 19.3558 18.1149 19.5828 18.2996 19.7471C18.4843 19.9115 18.7233 20.0016 18.9705 20.0001H19.0805C19.3426 19.97 19.5822 19.8374 19.747 19.6314C19.9119 19.4253 19.9886 19.1625 19.9605 18.9001C19.76 17.0963 19.0724 15.3811 17.9713 13.9383C16.8703 12.4955 15.3974 11.3796 13.7105 10.7101ZM10.0005 10.0001C9.20936 10.0001 8.436 9.76553 7.7782 9.326C7.12041 8.88648 6.60772 8.26176 6.30497 7.53086C6.00222 6.79995 5.923 5.99569 6.07734 5.21976C6.23168 4.44384 6.61265 3.73111 7.17206 3.1717C7.73147 2.61229 8.4442 2.23132 9.22012 2.07698C9.99605 1.92264 10.8003 2.00186 11.5312 2.30461C12.2621 2.60736 12.8868 3.12005 13.3264 3.77784C13.7659 4.43564 14.0005 5.209 14.0005 6.00012C14.0005 7.06099 13.5791 8.07841 12.8289 8.82855C12.0788 9.5787 11.0614 10.0001 10.0005 10.0001Z" fill="#181818"/>
</svg>
