<svg width="250" height="23" viewBox="0 0 250 23" fill="none" xmlns="http://www.w3.org/2000/svg">
<path d="M3.2 7.46V21.54H12.48C17.376 21.54 17.6 18.468 17.6 14.5C17.6 10.564 17.376 7.46 12.48 7.46H3.2ZM15.328 6.692C19.552 7.076 20.8 11.364 20.8 14.5C20.8 18.212 19.04 22.5 12.8 22.5H0V0.0999985H12.48C15.264 0.0999985 17.6 0.835999 17.6 3.94C17.6 5.252 16.512 6.404 15.328 6.692ZM12.16 6.5C14.24 6.5 14.4 6.084 14.4 3.94C14.4 1.86 13.92 1.06 12.16 1.06H3.2V6.5H12.16ZM28.1688 1.06V6.5H40.0088C42.0888 6.5 42.2488 6.084 42.2488 3.94C42.2488 1.86 42.0888 1.06 40.0088 1.06H28.1688ZM43.6248 22.5L34.9848 7.46H28.1688V22.5H24.9688V0.0999985H40.6488C43.4648 0.0999985 45.7688 1.124 45.7688 3.94C45.7688 6.756 43.4648 7.46 40.6488 7.46H38.6328L47.3368 22.5H43.6248ZM62.7225 4.58H62.0185L57.2185 12.9H67.5225L62.7225 4.58ZM73.0585 22.5L68.0665 13.86H56.7065L51.6825 22.5H50.5625L63.4905 0.0999985H63.8105L76.7705 22.5H73.0585ZM85.6245 0.0999985L101.529 19.076H101.849V0.0999985H102.809V22.5H100.249L82.2325 1.06H81.2725V22.5H80.3125V0.0999985H85.6245ZM118.506 22.5H108.906V0.0999985H118.506C124.906 0.0999985 132.138 3.556 132.138 11.332C132.138 19.012 124.906 22.5 118.506 22.5ZM118.506 0.867998H112.106V21.636H118.538C125.226 21.604 128.778 17.092 128.842 11.428C128.81 5.636 125.13 0.803999 118.506 0.867998ZM140.937 0.0999985L156.841 19.076H157.161V0.0999985H158.121V22.5H155.561L137.545 1.06H136.585V22.5H135.625V0.0999985H140.937ZM173.16 4.58H172.456L167.656 12.9H177.96L173.16 4.58ZM183.496 22.5L178.504 13.86H167.144L162.12 22.5H161L173.928 0.0999985H174.248L187.208 22.5H183.496ZM198.565 5.572L190.693 22.5H189.573L200.037 0.0679989L207.333 15.652L214.565 0.0999985L225.029 22.5H221.541L213.669 5.572H213.125L206.117 20.644L199.141 5.572H198.565ZM232.044 6.5H244.652L244.108 7.46H232.044V21.54H249.644L249.1 22.5H228.844V0.0999985H248.364L247.82 1.06H232.044V6.5Z" fill="#121314"/>
</svg>
