<svg width="24" height="24" viewBox="0 0 24 24" fill="none" xmlns="http://www.w3.org/2000/svg">
<path d="M8.80019 1.59961C7.91619 1.59961 7.2002 2.31561 7.2002 3.19961V15.9996C7.2002 16.8836 7.91619 17.5996 8.80019 17.5996H19.2002C20.0842 17.5996 20.8002 16.8836 20.8002 15.9996V6.79961C20.8002 6.58761 20.7162 6.38438 20.5658 6.23398L16.1658 1.83398C16.0154 1.68358 15.8122 1.59961 15.6002 1.59961H8.80019ZM15.2002 3.12305L19.2768 7.19961H16.0002C15.5586 7.19961 15.2002 6.84121 15.2002 6.39961V3.12305ZM4.8002 5.59961C3.9162 5.59961 3.2002 6.31561 3.2002 7.19961V19.9996C3.2002 20.8836 3.9162 21.5996 4.8002 21.5996H15.2002C16.0842 21.5996 16.8002 20.8836 16.8002 19.9996V19.1996H8.80019C7.03539 19.1996 5.6002 17.7644 5.6002 15.9996V5.59961H4.8002Z" fill="#7E8494"/>
</svg>
