<svg width="24" height="24" viewBox="0 0 24 24" fill="none" xmlns="http://www.w3.org/2000/svg">
<path d="M21.1431 6.857H8.57171M6.28599 6.857H2.85742M21.1431 18.2856H8.57171M6.28599 18.2856H2.85742M15.4289 12.5713H2.85742M21.1431 12.5713H17.7146M7.42885 4.57129C7.73196 4.57129 8.02265 4.6917 8.23697 4.90602C8.4513 5.12035 8.57171 5.41104 8.57171 5.71415V7.99986C8.57171 8.30296 8.4513 8.59365 8.23697 8.80798C8.02265 9.02231 7.73196 9.14272 7.42885 9.14272C7.12575 9.14272 6.83506 9.02231 6.62073 8.80798C6.4064 8.59365 6.28599 8.30296 6.28599 7.99986V5.71415C6.28599 5.41104 6.4064 5.12035 6.62073 4.90602C6.83506 4.6917 7.12575 4.57129 7.42885 4.57129ZM7.42885 15.9999C7.73196 15.9999 8.02265 16.1203 8.23697 16.3346C8.4513 16.5489 8.57171 16.8396 8.57171 17.1427V19.4284C8.57171 19.7315 8.4513 20.0222 8.23697 20.2366C8.02265 20.4509 7.73196 20.5713 7.42885 20.5713C7.12575 20.5713 6.83506 20.4509 6.62073 20.2366C6.4064 20.0222 6.28599 19.7315 6.28599 19.4284V17.1427C6.28599 16.8396 6.4064 16.5489 6.62073 16.3346C6.83506 16.1203 7.12575 15.9999 7.42885 15.9999ZM16.5717 10.2856C16.8748 10.2856 17.1655 10.406 17.3798 10.6203C17.5942 10.8346 17.7146 11.1253 17.7146 11.4284V13.7141C17.7146 14.0172 17.5942 14.3079 17.3798 14.5223C17.1655 14.7366 16.8748 14.857 16.5717 14.857C16.2686 14.857 15.9779 14.7366 15.7636 14.5223C15.5493 14.3079 15.4289 14.0172 15.4289 13.7141V11.4284C15.4289 11.1253 15.5493 10.8346 15.7636 10.6203C15.9779 10.406 16.2686 10.2856 16.5717 10.2856Z" stroke="#262626" stroke-width="1.2" stroke-linecap="round" stroke-linejoin="round"/>
</svg>
