<svg width="16" height="20" viewBox="0 0 16 20" fill="none" xmlns="http://www.w3.org/2000/svg">
<path d="M8 9.988C8.91291 9.988 9.74975 9.76391 10.5105 9.31573C11.2713 8.86755 11.8759 8.2633 12.3243 7.503C12.7728 6.7427 12.997 5.90636 12.997 4.994C12.997 4.08163 12.7728 3.2453 12.3243 2.48499C11.8759 1.72469 11.2713 1.12045 10.5105 0.67227C9.74975 0.224091 8.91291 0 8 0C7.08709 0 6.25025 0.224091 5.48949 0.67227C4.72873 1.12045 4.12412 1.72469 3.67568 2.48499C3.22723 3.2453 3.003 4.08163 3.003 4.994C3.003 5.90636 3.22723 6.7427 3.67568 7.503C4.12412 8.2633 4.72873 8.86755 5.48949 9.31573C6.25025 9.76391 7.08709 9.988 8 9.988ZM8 0.984394C8.72072 0.984394 9.38939 1.16446 10.006 1.52461C10.6226 1.88475 11.1111 2.37295 11.4715 2.98919C11.8318 3.60544 12.012 4.27371 12.012 4.994C12.012 5.71428 11.8318 6.38255 11.4715 6.9988C11.1111 7.61505 10.6226 8.10324 10.006 8.46338C9.38939 8.82353 8.72072 9.0036 8 9.0036C7.27928 9.0036 6.61061 8.82353 5.99399 8.46338C5.37738 8.10324 4.88889 7.61505 4.52853 6.9988C4.16817 6.38255 3.98799 5.71428 3.98799 4.994C3.98799 4.27371 4.16817 3.60544 4.52853 2.98919C4.88889 2.37295 5.37738 1.88475 5.99399 1.52461C6.61061 1.16446 7.27928 0.984394 8 0.984394ZM8 11.9808C6.49449 11.9808 5.13313 12.3089 3.91592 12.9652C2.6987 13.6214 1.74575 14.5098 1.05706 15.6303C0.352352 16.7987 0 18.0872 0 19.4958V20H16V19.4958C16 18.0872 15.6476 16.7987 14.9429 15.6303C14.2543 14.5098 13.3013 13.6214 12.0841 12.9652C10.8669 12.3089 9.50551 11.9808 8 11.9808ZM0.984985 18.9916C1.06507 17.8551 1.42142 16.8307 2.05405 15.9184C2.68669 15.006 3.51952 14.2897 4.55255 13.7695C5.58559 13.2493 6.73473 12.9892 8 12.9892C9.26526 12.9892 10.4144 13.2493 11.4474 13.7695C12.4805 14.2897 13.3093 15.006 13.9339 15.9184C14.5586 16.8307 14.9189 17.8551 15.015 18.9916H0.984985Z" fill="black"/>
</svg>
