<svg width="31" height="32" viewBox="0 0 31 32" fill="none" xmlns="http://www.w3.org/2000/svg">
<g clip-path="url(#clip0_49_2143)">
<path d="M20.0208 18.6667H19.0004L18.6388 18.3067C19.9046 16.7867 20.6667 14.8133 20.6667 12.6667C20.6667 7.88 16.9079 4 12.2708 4C7.63375 4 3.875 7.88 3.875 12.6667C3.875 17.4533 7.63375 21.3333 12.2708 21.3333C14.3504 21.3333 16.2621 20.5467 17.7346 19.24L18.0833 19.6133V20.6667L24.5417 27.32L26.4662 25.3333L20.0208 18.6667ZM12.2708 18.6667C9.05458 18.6667 6.45833 15.9867 6.45833 12.6667C6.45833 9.34667 9.05458 6.66667 12.2708 6.66667C15.4871 6.66667 18.0833 9.34667 18.0833 12.6667C18.0833 15.9867 15.4871 18.6667 12.2708 18.6667ZM12.9167 9.33333H11.625V12H9.04167V13.3333H11.625V16H12.9167V13.3333H15.5V12H12.9167V9.33333Z" fill="#0C0C0C"/>
</g>
<defs>
<clipPath id="clip0_49_2143">
<rect width="31" height="32" fill="white"/>
</clipPath>
</defs>
</svg>
